<svg viewBox="0 0 200 50" xmlns="http://www.w3.org/2000/svg">
  <defs>
    <!-- Gradient pour l'icône -->
    <linearGradient id="iconGradient" x1="0%" y1="0%" x2="100%" y2="100%">
      <stop offset="0%" style="stop-color:#1F2937;stop-opacity:1" />
      <stop offset="100%" style="stop-color:#374151;stop-opacity:1" />
    </linearGradient>
    
    <!-- Gradient pour le texte -->
    <linearGradient id="textGradient" x1="0%" y1="0%" x2="100%" y2="0%">
      <stop offset="0%" style="stop-color:#111827;stop-opacity:1" />
      <stop offset="100%" style="stop-color:#1F2937;stop-opacity:1" />
    </linearGradient>
    
    <!-- Effet glow -->
    <filter id="glow">
      <feGaussianBlur stdDeviation="2" result="coloredBlur"/>
      <feMerge> 
        <feMergeNode in="coloredBlur"/>
        <feMergeNode in="SourceGraphic"/>
      </feMerge>
    </filter>
  </defs>
  
  <!-- Conteneur principal de l'icône -->
  <g transform="translate(5, 5)">
    <!-- Cercle de base avec effet -->
    <circle cx="20" cy="20" r="18" fill="url(#iconGradient)" opacity="0.1"/>
    <circle cx="20" cy="20" r="16" fill="url(#iconGradient)" filter="url(#glow)"/>
    
    <!-- Icône avion stilisé -->
    <g transform="translate(20, 20)">
      <!-- Corps de l'avion -->
      <path d="M-8 0 L-5 -1.5 L5 -0.8 L8 0 L5 0.8 L-5 1.5 Z" fill="white" opacity="0.9"/>
      <!-- Ailes -->
      <path d="M-3 -0.8 L-7 -5 L-5 -6 L-1 -1.5 Z" fill="white" opacity="0.8"/>
      <path d="M-3 0.8 L-7 5 L-5 6 L-1 1.5 Z" fill="white" opacity="0.8"/>
      <!-- Queue -->
      <path d="M5 0 L9 -2 L10 -1 L6.5 0 L10 1 L9 2 Z" fill="white" opacity="0.7"/>
    </g>
    
    <!-- Points de connexion (représentant l'IA) -->
    <circle cx="10" cy="10" r="1.5" fill="white" opacity="0.6">
      <animate attributeName="opacity" values="0.6;1;0.6" dur="2s" repeatCount="indefinite"/>
    </circle>
    <circle cx="30" cy="12" r="1" fill="white" opacity="0.5">
      <animate attributeName="opacity" values="0.5;0.9;0.5" dur="2.5s" repeatCount="indefinite"/>
    </circle>
    <circle cx="14" cy="30" r="1" fill="white" opacity="0.4">
      <animate attributeName="opacity" values="0.4;0.8;0.4" dur="3s" repeatCount="indefinite"/>
    </circle>
    
    <!-- Lignes de connexion -->
    <line x1="11.5" y1="11.5" x2="18.5" y2="18.5" stroke="white" stroke-width="0.8" opacity="0.3"/>
    <line x1="21.5" y1="21.5" x2="28.5" y2="13.5" stroke="white" stroke-width="0.8" opacity="0.3"/>
  </g>
  
  <!-- Texte TripMatch -->
  <g transform="translate(50, 30)">
    <!-- Trip -->
    <text x="0" y="0" font-family="'Segoe UI', Arial, sans-serif" font-size="18" font-weight="700" fill="url(#textGradient)">
      <tspan>Trip</tspan>
    </text>
    
    <!-- Match avec couleur #f5655 -->
    <text x="42" y="0" font-family="'Segoe UI', Arial, sans-serif" font-size="18" font-weight="400" fill="#f5655">
      <tspan>Match</tspan>
    </text>
  </g>
  
  <!-- Élément décoratif -->
  <circle cx="180" cy="20" r="2" fill="#f5655" opacity="0.6">
    <animate attributeName="r" values="2;3;2" dur="4s" repeatCount="indefinite"/>
    <animate attributeName="opacity" values="0.6;0.3;0.6" dur="4s" repeatCount="indefinite"/>
  </circle>
</svg>